<svg width="25" height="24" viewBox="0 0 25 24" fill="none" xmlns="http://www.w3.org/2000/svg">
<path d="M4.5 10V16M20.5 10V16M7.5 9H17.5M7.5 9V17C7.5 17.2652 7.60536 17.5196 7.79289 17.7071C7.98043 17.8946 8.23478 18 8.5 18H16.5C16.7652 18 17.0196 17.8946 17.2071 17.7071C17.3946 17.5196 17.5 17.2652 17.5 17V9M7.5 9C7.5 7.67392 8.02678 6.40215 8.96447 5.46447C9.90215 4.52678 11.1739 4 12.5 4C13.8261 4 15.0979 4.52678 16.0355 5.46447C16.9732 6.40215 17.5 7.67392 17.5 9M8.5 3L9.5 5M16.5 3L15.5 5M9.5 18V21M15.5 18V21" stroke="white" stroke-width="2" stroke-linecap="round" stroke-linejoin="round"/>
</svg>
