<svg width="22" height="14" viewBox="0 0 22 14" fill="none" xmlns="http://www.w3.org/2000/svg">
<path d="M5 7H9M7 5V9M14 6V6.01M17 8V8.01M1 3C1 2.46957 1.21071 1.96086 1.58579 1.58579C1.96086 1.21071 2.46957 1 3 1H19C19.5304 1 20.0391 1.21071 20.4142 1.58579C20.7893 1.96086 21 2.46957 21 3V11C21 11.5304 20.7893 12.0391 20.4142 12.4142C20.0391 12.7893 19.5304 13 19 13H3C2.46957 13 1.96086 12.7893 1.58579 12.4142C1.21071 12.0391 1 11.5304 1 11V3Z" stroke="#DF5642" stroke-width="2" stroke-linecap="round" stroke-linejoin="round"/>
</svg>
