<svg width="20" height="20" viewBox="0 0 20 20" fill="none" xmlns="http://www.w3.org/2000/svg">
<path d="M4 13V12C4 11.4696 4.21071 10.9609 4.58579 10.5858C4.96086 10.2107 5.46957 10 6 10H14C14.5304 10 15.0391 10.2107 15.4142 10.5858C15.7893 10.9609 16 11.4696 16 12V13M10 7V10M1 15C1 14.4696 1.21071 13.9609 1.58579 13.5858C1.96086 13.2107 2.46957 13 3 13H5C5.53043 13 6.03914 13.2107 6.41421 13.5858C6.78929 13.9609 7 14.4696 7 15V17C7 17.5304 6.78929 18.0391 6.41421 18.4142C6.03914 18.7893 5.53043 19 5 19H3C2.46957 19 1.96086 18.7893 1.58579 18.4142C1.21071 18.0391 1 17.5304 1 17V15ZM13 15C13 14.4696 13.2107 13.9609 13.5858 13.5858C13.9609 13.2107 14.4696 13 15 13H17C17.5304 13 18.0391 13.2107 18.4142 13.5858C18.7893 13.9609 19 14.4696 19 15V17C19 17.5304 18.7893 18.0391 18.4142 18.4142C18.0391 18.7893 17.5304 19 17 19H15C14.4696 19 13.9609 18.7893 13.5858 18.4142C13.2107 18.0391 13 17.5304 13 17V15ZM7 3C7 2.46957 7.21071 1.96086 7.58579 1.58579C7.96086 1.21071 8.46957 1 9 1H11C11.5304 1 12.0391 1.21071 12.4142 1.58579C12.7893 1.96086 13 2.46957 13 3V5C13 5.53043 12.7893 6.03914 12.4142 6.41421C12.0391 6.78929 11.5304 7 11 7H9C8.46957 7 7.96086 6.78929 7.58579 6.41421C7.21071 6.03914 7 5.53043 7 5V3Z" stroke="#DF5642" stroke-width="2" stroke-linecap="round" stroke-linejoin="round"/>
</svg>
