<svg width="76" height="24" viewBox="0 0 76 24" fill="none" xmlns="http://www.w3.org/2000/svg">
<path d="M8.24325 7.33992L1.86325 8.26492L1.75025 8.28792C1.57919 8.33333 1.42325 8.42333 1.29835 8.54872C1.17344 8.67412 1.08406 8.83041 1.03932 9.00165C0.994575 9.17289 0.996081 9.35293 1.04368 9.5234C1.09128 9.69386 1.18327 9.84864 1.31025 9.97192L5.93225 14.4709L4.84225 20.8259L4.82925 20.9359C4.81878 21.1128 4.85552 21.2894 4.9357 21.4474C5.01589 21.6055 5.13664 21.7394 5.28559 21.8354C5.43454 21.9315 5.60634 21.9862 5.7834 21.994C5.96046 22.0018 6.13642 21.9625 6.29325 21.8799L11.9993 18.8799L17.6923 21.8799L17.7923 21.9259C17.9573 21.9909 18.1367 22.0109 18.312 21.9837C18.4873 21.9565 18.6522 21.8832 18.7898 21.7712C18.9275 21.6592 19.0328 21.5127 19.0951 21.3466C19.1574 21.1804 19.1743 21.0008 19.1443 20.8259L18.0533 14.4709L22.6773 9.97092L22.7553 9.88592C22.8667 9.74869 22.9397 9.58438 22.967 9.40972C22.9942 9.23506 22.9747 9.0563 22.9103 8.89165C22.846 8.72701 22.7392 8.58235 22.6007 8.47244C22.4623 8.36252 22.2972 8.29126 22.1223 8.26592L15.7423 7.33992L12.8903 1.55992C12.8077 1.39246 12.68 1.25144 12.5214 1.15283C12.3629 1.05422 12.1799 1.00195 11.9933 1.00195C11.8066 1.00195 11.6236 1.05422 11.4651 1.15283C11.3065 1.25144 11.1788 1.39246 11.0963 1.55992L8.24325 7.33992Z" fill="#DF5642"/>
<path d="M38.0004 0.999984C38.1634 1.0006 38.3237 1.04134 38.4673 1.1186C38.6108 1.19586 38.7331 1.30727 38.8234 1.44298L38.8904 1.55898L41.7424 7.33998L48.1224 8.26498C48.8634 8.37298 49.2024 9.20498 48.8254 9.79098L48.7554 9.88598L48.6774 9.97198L44.0534 14.471L45.1434 20.826C45.1718 20.9918 45.158 21.162 45.1032 21.321C45.0484 21.48 44.9544 21.6227 44.83 21.7358C44.7055 21.8489 44.5545 21.9288 44.391 21.9682C44.2275 22.0075 44.0567 22.0051 43.8944 21.961L43.7934 21.926L43.6924 21.88L37.9994 18.88L32.2934 21.88C32.1884 21.935 32.0814 21.97 31.9734 21.986L31.8674 21.996C31.7278 22.0011 31.5887 21.977 31.459 21.9252C31.3293 21.8735 31.2118 21.7952 31.1141 21.6954C31.0164 21.5956 30.9406 21.4765 30.8916 21.3458C30.8425 21.215 30.8214 21.0754 30.8294 20.936L30.8424 20.826L31.9324 14.471L27.3094 9.97098C27.1899 9.85454 27.1013 9.71006 27.0518 9.55068C27.0024 9.3913 26.9935 9.22208 27.0261 9.05841C27.0587 8.89474 27.1317 8.74182 27.2385 8.61355C27.3452 8.48528 27.4824 8.38574 27.6374 8.32398L27.7504 8.28798L27.8644 8.26498L34.2434 7.33998L37.0964 1.55998C37.176 1.38859 37.304 1.24424 37.4646 1.14473C37.6253 1.04522 37.8115 0.994904 38.0004 0.999984ZM38.0004 4.27398V16.75C38.0809 16.75 38.1612 16.7597 38.2394 16.779L38.3544 16.815L38.4664 16.865L42.8294 19.164L41.9934 14.291C41.9522 14.0502 42.0006 13.8026 42.1294 13.595L42.1994 13.496L42.2814 13.406L45.8274 9.95298L40.9364 9.24498C40.6947 9.20989 40.4741 9.08753 40.3164 8.90098L40.2434 8.80398L40.1834 8.69798L38.0004 4.27398Z" fill="#DF5642"/>
<path d="M63.9998 17.75L57.8278 20.995L59.0068 14.122L54.0068 9.25495L60.9068 8.25495L63.9928 2.00195L67.0788 8.25495L73.9788 9.25495L68.9788 14.122L70.1578 20.995L63.9998 17.75Z" stroke="#DF5642" stroke-width="2" stroke-linecap="round" stroke-linejoin="round"/>
</svg>
