<svg width="80" height="24" viewBox="0 0 80 24" fill="none" xmlns="http://www.w3.org/2000/svg">
<path d="M4 10V16M20 10V16M7 9H17M7 9V17C7 17.2652 7.10536 17.5196 7.29289 17.7071C7.48043 17.8946 7.73478 18 8 18H16C16.2652 18 16.5196 17.8946 16.7071 17.7071C16.8946 17.5196 17 17.2652 17 17V9M7 9C7 7.67392 7.52678 6.40215 8.46447 5.46447C9.40215 4.52678 10.6739 4 12 4C13.3261 4 14.5979 4.52678 15.5355 5.46447C16.4732 6.40215 17 7.67392 17 9M8 3L9 5M16 3L15 5M9 18V21M15 18V21" stroke="white" stroke-width="2" stroke-linecap="round" stroke-linejoin="round"/>
<path d="M37 7C34 7 33 10 33 12.5C33 15.5 35 20 37 20C38.088 19.954 38.679 19.5 40 19.5C41.312 19.5 41.5 20 43 20C44.5 20 47 17 47 15C46.972 14.99 44.528 14.597 44.5 12C44.481 9.83 46.916 9.046 47 9C45.977 7.508 44.049 7.037 43.5 7C42.067 6.889 40.67 8 40 8C39.32 8 38.1 7 37 7Z" stroke="white" stroke-width="2" stroke-linecap="round" stroke-linejoin="round"/>
<path d="M40 4C40.5304 4 41.0391 3.78929 41.4142 3.41421C41.7893 3.03914 42 2.53043 42 2C41.4696 2 40.9609 2.21071 40.5858 2.58579C40.2107 2.96086 40 3.46957 40 4Z" stroke="white" stroke-width="2" stroke-linecap="round" stroke-linejoin="round"/>
<path d="M68 5V19M60 12H76M73.8 20L61.8 18.5C60.8 18.4 60 17.6 60 16.6V7.39997C60 6.39997 60.8 5.59997 61.8 5.49997L73.8 3.99997C75 3.89997 76 4.79997 76 5.89997V18C76 19.2 74.9 20.1 73.8 19.9V20Z" stroke="white" stroke-width="2" stroke-linecap="round" stroke-linejoin="round"/>
</svg>
