<svg width="24" height="24" viewBox="0 0 24 24" fill="none" xmlns="http://www.w3.org/2000/svg">
<path d="M8.24325 7.33998L1.86325 8.26498L1.75025 8.28798C1.57919 8.3334 1.42325 8.42339 1.29835 8.54879C1.17344 8.67418 1.08406 8.83047 1.03932 9.00171C0.994575 9.17295 0.996081 9.35299 1.04368 9.52346C1.09128 9.69392 1.18327 9.8487 1.31025 9.97198L5.93225 14.471L4.84225 20.826L4.82925 20.936C4.81878 21.1129 4.85552 21.2894 4.9357 21.4475C5.01589 21.6055 5.13664 21.7395 5.28559 21.8355C5.43454 21.9315 5.60634 21.9863 5.7834 21.9941C5.96046 22.0019 6.13642 21.9625 6.29325 21.88L11.9993 18.88L17.6923 21.88L17.7923 21.926C17.9573 21.991 18.1367 22.0109 18.312 21.9837C18.4873 21.9566 18.6522 21.8832 18.7898 21.7712C18.9275 21.6593 19.0328 21.5127 19.0951 21.3466C19.1574 21.1805 19.1743 21.0008 19.1443 20.826L18.0533 14.471L22.6773 9.97098L22.7553 9.88598C22.8667 9.74875 22.9397 9.58444 22.967 9.40978C22.9942 9.23512 22.9747 9.05636 22.9103 8.89171C22.846 8.72707 22.7392 8.58242 22.6007 8.4725C22.4623 8.36258 22.2972 8.29132 22.1223 8.26598L15.7423 7.33998L12.8903 1.55998C12.8077 1.39252 12.68 1.2515 12.5214 1.15289C12.3629 1.05428 12.1799 1.00201 11.9933 1.00201C11.8066 1.00201 11.6236 1.05428 11.4651 1.15289C11.3065 1.2515 11.1788 1.39252 11.0963 1.55998L8.24325 7.33998Z" fill="#DF5642"/>
</svg>
