<svg width="24" height="24" viewBox="0 0 24 24" fill="none" xmlns="http://www.w3.org/2000/svg">
<path d="M12.0004 0.999984C12.1634 1.0006 12.3237 1.04134 12.4673 1.1186C12.6108 1.19586 12.7331 1.30727 12.8234 1.44298L12.8904 1.55898L15.7424 7.33998L22.1224 8.26498C22.8634 8.37298 23.2024 9.20498 22.8254 9.79098L22.7554 9.88598L22.6774 9.97198L18.0534 14.471L19.1434 20.826C19.1718 20.9918 19.158 21.162 19.1032 21.321C19.0484 21.48 18.9544 21.6227 18.83 21.7358C18.7055 21.8489 18.5545 21.9288 18.391 21.9682C18.2275 22.0075 18.0567 22.0051 17.8944 21.961L17.7934 21.926L17.6924 21.88L11.9994 18.88L6.2934 21.88C6.1884 21.935 6.0814 21.97 5.9734 21.986L5.8674 21.996C5.72783 22.0011 5.58873 21.977 5.45902 21.9252C5.3293 21.8735 5.21183 21.7952 5.11411 21.6954C5.0164 21.5956 4.9406 21.4765 4.89157 21.3458C4.84254 21.215 4.82137 21.0754 4.8294 20.936L4.8424 20.826L5.9324 14.471L1.3094 9.97098C1.18985 9.85454 1.10131 9.71006 1.05184 9.55068C1.00236 9.3913 0.99352 9.22208 1.02611 9.05841C1.05871 8.89474 1.13171 8.74182 1.23847 8.61355C1.34523 8.48528 1.48236 8.38574 1.6374 8.32398L1.7504 8.28798L1.8644 8.26498L8.2434 7.33998L11.0964 1.55998C11.176 1.38859 11.304 1.24424 11.4646 1.14473C11.6253 1.04522 11.8115 0.994904 12.0004 0.999984ZM12.0004 4.27398V16.75C12.0809 16.75 12.1612 16.7597 12.2394 16.779L12.3544 16.815L12.4664 16.865L16.8294 19.164L15.9934 14.291C15.9522 14.0502 16.0006 13.8026 16.1294 13.595L16.1994 13.496L16.2814 13.406L19.8274 9.95298L14.9364 9.24498C14.6947 9.20989 14.4741 9.08753 14.3164 8.90098L14.2434 8.80398L14.1834 8.69798L12.0004 4.27398Z" fill="#DF5642"/>
</svg>
