<svg width="23" height="23" viewBox="0 0 23 23" fill="none" xmlns="http://www.w3.org/2000/svg">
<path d="M11.1023 22.3411C17.1377 22.3411 22.0304 17.4484 22.0304 11.413C22.0304 5.37757 17.1377 0.484863 11.1023 0.484863C5.06684 0.484863 0.174133 5.37757 0.174133 11.413C0.174133 17.4484 5.06684 22.3411 11.1023 22.3411Z" fill="#34AADF"/>
<path d="M4.85884 11.1738C4.85884 11.1738 10.2721 8.87087 12.1495 8.05993C12.8692 7.73559 15.3098 6.69759 15.3098 6.69759C15.3098 6.69759 16.4363 6.2435 16.3424 7.34633C16.3111 7.80046 16.0608 9.38982 15.8105 11.109C15.435 13.5417 15.0282 16.2015 15.0282 16.2015C15.0282 16.2015 14.9656 16.9476 14.4337 17.0773C13.9018 17.207 13.0256 16.6232 12.8692 16.4934C12.744 16.3962 10.5224 14.9365 9.70885 14.2229C9.48981 14.0283 9.2395 13.6391 9.74012 13.1849C10.8666 12.1145 12.2121 10.7846 13.0256 9.94128C13.4011 9.55202 13.7766 8.6438 12.2121 9.74663C9.99047 11.336 7.80014 12.8281 7.80014 12.8281C7.80014 12.8281 7.29948 13.1525 6.36078 12.8605C5.42204 12.5686 4.32687 12.1794 4.32687 12.1794C4.32687 12.1794 3.57595 11.6928 4.85884 11.1738Z" fill="white"/>
</svg>
