<svg width="76" height="24" viewBox="0 0 76 24" fill="none" xmlns="http://www.w3.org/2000/svg">
<path d="M8.24325 7.33992L1.86325 8.26492L1.75025 8.28792C1.57919 8.33333 1.42325 8.42333 1.29835 8.54872C1.17344 8.67412 1.08406 8.83041 1.03932 9.00165C0.994575 9.17289 0.996081 9.35293 1.04368 9.5234C1.09128 9.69386 1.18327 9.84864 1.31025 9.97192L5.93225 14.4709L4.84225 20.8259L4.82925 20.9359C4.81878 21.1128 4.85552 21.2894 4.9357 21.4474C5.01589 21.6055 5.13664 21.7394 5.28559 21.8354C5.43454 21.9315 5.60634 21.9862 5.7834 21.994C5.96046 22.0018 6.13642 21.9625 6.29325 21.8799L11.9993 18.8799L17.6923 21.8799L17.7923 21.9259C17.9573 21.9909 18.1367 22.0109 18.312 21.9837C18.4873 21.9565 18.6522 21.8832 18.7898 21.7712C18.9275 21.6592 19.0328 21.5127 19.0951 21.3466C19.1574 21.1804 19.1743 21.0008 19.1443 20.8259L18.0533 14.4709L22.6773 9.97092L22.7553 9.88592C22.8667 9.74869 22.9397 9.58438 22.967 9.40972C22.9942 9.23506 22.9747 9.0563 22.9103 8.89165C22.846 8.72701 22.7392 8.58235 22.6007 8.47244C22.4623 8.36252 22.2972 8.29126 22.1223 8.26592L15.7423 7.33992L12.8903 1.55992C12.8077 1.39246 12.68 1.25144 12.5214 1.15283C12.3629 1.05422 12.1799 1.00195 11.9933 1.00195C11.8066 1.00195 11.6236 1.05422 11.4651 1.15283C11.3065 1.25144 11.1788 1.39246 11.0963 1.55992L8.24325 7.33992Z" fill="#DF5642"/>
<path d="M34.2433 7.33992L27.8633 8.26492L27.7503 8.28792C27.5792 8.33333 27.4232 8.42333 27.2983 8.54872C27.1734 8.67412 27.0841 8.83041 27.0393 9.00165C26.9946 9.17289 26.9961 9.35293 27.0437 9.5234C27.0913 9.69386 27.1833 9.84864 27.3103 9.97192L31.9323 14.4709L30.8423 20.8259L30.8293 20.9359C30.8188 21.1128 30.8555 21.2894 30.9357 21.4474C31.0159 21.6055 31.1366 21.7394 31.2856 21.8354C31.4345 21.9315 31.6063 21.9862 31.7834 21.994C31.9605 22.0018 32.1364 21.9625 32.2933 21.8799L37.9993 18.8799L43.6923 21.8799L43.7923 21.9259C43.9573 21.9909 44.1367 22.0109 44.312 21.9837C44.4873 21.9565 44.6522 21.8832 44.7898 21.7712C44.9275 21.6592 45.0328 21.5127 45.0951 21.3466C45.1574 21.1804 45.1743 21.0008 45.1443 20.8259L44.0533 14.4709L48.6773 9.97092L48.7553 9.88592C48.8667 9.74869 48.9397 9.58438 48.967 9.40972C48.9942 9.23506 48.9747 9.0563 48.9103 8.89165C48.846 8.72701 48.7392 8.58235 48.6007 8.47244C48.4623 8.36252 48.2972 8.29126 48.1223 8.26592L41.7423 7.33992L38.8903 1.55992C38.8077 1.39246 38.68 1.25144 38.5214 1.15283C38.3629 1.05422 38.1799 1.00195 37.9933 1.00195C37.8066 1.00195 37.6236 1.05422 37.4651 1.15283C37.3065 1.25144 37.1788 1.39246 37.0963 1.55992L34.2433 7.33992Z" fill="#DF5642"/>
<path d="M64.0004 0.999984C64.1634 1.0006 64.3237 1.04134 64.4673 1.1186C64.6108 1.19586 64.7331 1.30727 64.8234 1.44298L64.8904 1.55898L67.7424 7.33998L74.1224 8.26498C74.8634 8.37298 75.2024 9.20498 74.8254 9.79098L74.7554 9.88598L74.6774 9.97198L70.0534 14.471L71.1434 20.826C71.1718 20.9918 71.158 21.162 71.1032 21.321C71.0484 21.48 70.9544 21.6227 70.83 21.7358C70.7055 21.8489 70.5545 21.9288 70.391 21.9682C70.2275 22.0075 70.0567 22.0051 69.8944 21.961L69.7934 21.926L69.6924 21.88L63.9994 18.88L58.2934 21.88C58.1884 21.935 58.0814 21.97 57.9734 21.986L57.8674 21.996C57.7278 22.0011 57.5887 21.977 57.459 21.9252C57.3293 21.8735 57.2118 21.7952 57.1141 21.6954C57.0164 21.5956 56.9406 21.4765 56.8916 21.3458C56.8425 21.215 56.8214 21.0754 56.8294 20.936L56.8424 20.826L57.9324 14.471L53.3094 9.97098C53.1899 9.85454 53.1013 9.71006 53.0518 9.55068C53.0024 9.3913 52.9935 9.22208 53.0261 9.05841C53.0587 8.89474 53.1317 8.74182 53.2385 8.61355C53.3452 8.48528 53.4824 8.38574 53.6374 8.32398L53.7504 8.28798L53.8644 8.26498L60.2434 7.33998L63.0964 1.55998C63.176 1.38859 63.304 1.24424 63.4646 1.14473C63.6253 1.04522 63.8115 0.994904 64.0004 0.999984ZM64.0004 4.27398V16.75C64.0809 16.75 64.1612 16.7597 64.2394 16.779L64.3544 16.815L64.4664 16.865L68.8294 19.164L67.9934 14.291C67.9522 14.0502 68.0006 13.8026 68.1294 13.595L68.1994 13.496L68.2814 13.406L71.8274 9.95298L66.9364 9.24498C66.6947 9.20989 66.4741 9.08753 66.3164 8.90098L66.2434 8.80398L66.1834 8.69798L64.0004 4.27398Z" fill="#DF5642"/>
</svg>
