<svg width="26" height="14" viewBox="0 0 26 14" fill="none" xmlns="http://www.w3.org/2000/svg">
<path fill-rule="evenodd" clip-rule="evenodd" d="M24.5198 0.959973C24.6881 0.431663 24.5198 0.043457 23.7192 0.043457H21.0716C20.3984 0.043457 20.088 0.378809 19.9197 0.748606C19.9197 0.748606 18.5733 3.83919 16.666 5.84672C16.0489 6.42784 15.7684 6.61274 15.4318 6.61274C15.2635 6.61274 15.0199 6.42784 15.0199 5.89957V0.959976C15.0199 0.326002 14.8245 0.043457 14.2635 0.043457H10.103C9.68231 0.043457 9.4293 0.337699 9.4293 0.616562C9.4293 1.21755 10.3829 1.35615 10.4812 3.04674V6.71844C10.4812 7.52345 10.3268 7.6694 9.99025 7.6694C9.09271 7.6694 6.90942 4.56501 5.61453 1.01278C5.36077 0.322354 5.10624 0.043457 4.42959 0.043457H1.782C1.02555 0.043457 0.874252 0.378809 0.874252 0.748606C0.874252 1.409 1.77184 4.68448 5.05359 9.01654C7.2414 11.975 10.3239 13.5787 13.1288 13.5787C14.8118 13.5787 15.0199 13.2225 15.0199 12.609V10.373C15.0199 9.66059 15.1794 9.51842 15.7123 9.51842C16.105 9.51842 16.7782 9.70332 18.349 11.1297C20.1441 12.8203 20.4401 13.5787 21.4498 13.5787H24.0974C24.8538 13.5787 25.2321 13.2225 25.0139 12.5196C24.7751 11.819 23.918 10.8026 22.7808 9.59765C22.1636 8.91087 21.238 8.17128 20.9575 7.8014C20.5648 7.32599 20.677 7.11462 20.9575 6.69202C20.9575 6.69202 24.1832 2.41277 24.5198 0.959973Z" fill="#2787F5"/>
</svg>
