<svg width="24" height="16" viewBox="0 0 24 16" fill="none" xmlns="http://www.w3.org/2000/svg">
<path d="M22.934 2.49818C22.6728 1.51636 21.9002 0.741818 20.9173 0.476364C19.14 1.73395e-07 12.0091 0 12.0091 0C12.0091 0 4.88185 1.73395e-07 3.10094 0.476364C2.12162 0.738182 1.34905 1.51273 1.08427 2.49818C0.609116 4.28 0.609116 8 0.609116 8C0.609116 8 0.609116 11.72 1.08427 13.5018C1.34542 14.4836 2.11799 15.2582 3.10094 15.5236C4.88185 16 12.0091 16 12.0091 16C12.0091 16 19.14 16 20.9173 15.5236C21.8966 15.2618 22.6692 14.4873 22.934 13.5018C23.4091 11.72 23.4091 8 23.4091 8C23.4091 8 23.4091 4.28 22.934 2.49818Z" fill="#FF3000"/>
<path d="M9.73129 11.4291L15.6544 8L9.73129 4.57091V11.4291Z" fill="white"/>
</svg>
